<?xml version="1.0" encoding="UTF-8"?>
<svg id="Layer_1" data-name="Layer 1" xmlns="http://www.w3.org/2000/svg" viewBox="0 0 309.78 264.41">
  <defs>
    <style>
      .cls-1 {
        fill: #fff;
      }

      .cls-2 {
        stroke-width: .25px;
      }

      .cls-2, .cls-3, .cls-4 {
        fill: #e1aed0;
      }

      .cls-2, .cls-4, .cls-5 {
        stroke: #e1aed0;
        stroke-miterlimit: 10;
      }

      .cls-4 {
        stroke-width: 5px;
      }

      .cls-5 {
        fill: #8052a1;
        stroke-width: 6px;
      }
    </style>
  </defs>
  <polygon class="cls-5" points="3.38 11.89 4.57 11.89 5.92 12.93 7.78 14.2 9.2 15.25 11.22 16.59 12.94 17.94 15.77 19.28 19.58 20.85 24.21 22.42 27.65 23.09 33.77 23.09 46.1 21.67 53.87 19.66 74.93 13.76 95.99 7.03 109.66 3.6 115.11 3 122.13 3 127.14 3.75 137.89 8.53 155.82 23.99 170.38 10.17 179.57 5.61 190.4 3.97 202.94 4.34 213.92 7.93 225.43 12.49 244.17 19.66 252.39 21.75 265.38 23.24 275.09 22.79 283.01 21.22 295.26 16.97 305.34 10.92 306.31 10.84 303.03 35.12 299.74 64.17 297.95 88.37 296.98 93.82 294.44 100.39 292.35 105.02 286.75 113.76 282.49 119.96 277.11 126.31 269.57 133.26 263.52 138.26 254.41 144.98 243.65 150.66 235.06 154.62 224.23 158.28 214.67 160.97 206.08 161.64 199.43 161.64 189.2 160.89 179.87 158.73 176.03 157.88 172.1 156.19 166.37 153 156.31 144.49 145.06 152.85 138.29 156.39 129.43 159.77 121.66 162.26 114.94 163.11 100 162.86 92.73 162.16 85.86 160.47 72.81 156.19 59.47 149.86 43.93 138.71 31.98 126.66 22.67 114.16 16 100.42 11.57 75.52 9.28 61.73 3.38 11.89"/>
  <polygon class="cls-3" points="142.9 89.49 142.5 85.61 141.65 80.93 140.61 77.24 138.77 73.71 135.53 68.53 131.69 64.6 128.56 62.36 125.42 60.46 120.49 58.07 116.02 56.43 113.3 55.83 111.13 55.35 107.69 54.75 103.51 54.75 99.44 54.75 94.7 54.75 88.57 55.5 82 56.73 71.77 59.01 62.21 61.77 54.85 64.12 51.27 65.47 55.37 70.17 62.92 76.6 71.47 82.46 78.62 86.54 86.08 89.49 94.6 91.17 107.05 91.87 121.74 92.07 135.83 91.27 142.45 89.63 142.9 89.49"/>
  <polygon class="cls-1" points="132.14 84.54 131.83 81.85 131.19 78.61 130.39 76.06 128.98 73.62 126.5 70.03 123.57 67.31 121.17 65.76 118.77 64.45 114.99 62.79 111.57 61.66 109.49 61.24 107.83 60.91 105.2 60.49 102 60.49 98.89 60.49 95.26 60.49 90.57 61.01 85.54 61.86 77.71 63.44 70.4 65.35 64.77 66.98 62.03 67.91 65.17 71.17 70.94 75.61 77.48 79.67 82.95 82.5 88.67 84.54 95.18 85.7 104.71 86.19 115.95 86.32 126.73 85.77 131.8 84.64 132.14 84.54"/>
  <polygon class="cls-3" points="173.07 88.94 174.57 80.58 177.25 74.16 179.35 69.82 182.63 66.24 185.92 63.25 189.8 60.71 194.43 58.77 197.87 57.28 201.6 56.08 206.23 55.19 210.86 55.19 216.54 55.19 221.02 55.19 226.55 55.19 232.23 56.23 239.69 58.02 249.25 60.26 255.23 62.06 264.04 64.75 265.69 65.19 263 68.03 258.81 71.98 252.69 77.14 246.12 81.77 239.25 86.11 232.37 88.94 225.8 90.29 217.14 91.63 208.03 91.63 198.77 91.63 189.5 91.63 181.29 90.74 174.86 90.14 173.07 88.94"/>
  <polygon class="cls-1" points="183.12 84.88 184.29 78.71 186.39 73.96 188.03 70.76 190.6 68.11 193.18 65.91 196.22 64.03 199.84 62.6 202.54 61.49 205.46 60.61 209.09 59.95 212.71 59.95 217.16 59.95 220.67 59.95 224.99 59.95 229.44 60.72 235.29 62.04 242.77 63.7 247.45 65.02 254.35 67.01 255.64 67.34 253.54 69.44 250.26 72.35 245.46 76.17 240.32 79.59 234.94 82.79 229.56 84.88 224.41 85.88 217.62 86.87 210.49 86.87 203.24 86.87 195.98 86.87 189.55 86.21 184.52 85.77 183.12 84.88"/>
  <polyline class="cls-4" points="13.18 101.48 20.05 133.44 24.23 147.19 30.8 160.63 40.66 175.27 55 194.99 67.85 211.72 85.77 231.43 101.31 243.68 118.34 254.74 140.15 261.91 149.41 261.91 166.94 261.91 181.28 255.43 197.61 248.26 225.09 229.94 238.64 215.6 251.78 198.07 265.69 177.36 279.27 153.46 290.42 129.16 296.4 115.62 296.4 104.46 282.06 125.58 270.11 137.13 252.58 149.87 230.67 159.43 224.2 161.53 216.13 163.72 203.38 164.91 189.94 164.21 180.98 162.22 174.3 160.53 167.73 157.24 162.85 154.26 159.67 151.47 156.18 148.68 151.9 151.87 143.04 157.34 127.4 163.62 116.55 165.91 104.4 165.91 92.55 165.11 78.7 161.53 63.17 155.05 48.13 145.29 41.26 140.51 36.08 135.23 29.01 127.87 25.52 123.28 21.64 117.91 19.25 113.82 16.26 107.95"/>
  <polygon class="cls-2" points="10.84 102.02 10.84 100.87 11.02 99.89 11.47 98.62 11.88 97.95 12.4 97.39 13.82 101.31 10.84 102.02"/>
</svg>