<?xml version="1.0" encoding="UTF-8"?><svg id="Layer_1" xmlns="http://www.w3.org/2000/svg" viewBox="0 0 240.97 665.29"><defs><style>.cls-1{opacity:.5;}.cls-1,.cls-2{fill:#e2aed0;}.cls-2{stroke:#8052a1;stroke-miterlimit:10;}</style></defs><polygon class="cls-1" points="183.76 654.25 183.47 656.42 183.48 658.57 184.06 659.95 184.64 661.21 186.03 662.98 187.39 663.94 189.12 664.94 190.92 665.29 193.57 665.28 195.8 664.88 198.12 663.98 200.35 662.55 202.07 660.88 203.96 658.48 204.44 656.87 204.79 654.43 205.15 643.03 204.95 633.3 199.31 632.99 183.52 633.31 178.85 634.32 175.28 636.48 172.78 639.53 171.48 643.2 171.45 647.04 172.32 649.61 175 652.53 178.21 653.96 181.37 654.25 183.76 654.25"/><polygon class="cls-1" points="233.41 645.9 234.86 646.11 236.29 646.13 237.22 645.8 238.07 645.47 239.29 644.63 239.96 643.81 240.65 642.76 240.92 641.66 240.97 640.03 240.74 638.66 240.19 637.21 239.28 635.82 238.2 634.74 236.63 633.54 235.57 633.22 233.94 632.97 226.34 632.58 219.83 632.56 219.52 636.02 219.42 645.74 220 648.63 221.37 650.85 223.37 652.44 225.79 653.29 228.35 653.37 230.08 652.87 232.09 651.27 233.11 649.31 233.36 647.37 233.41 645.9"/><polygon class="cls-1" points="232.87 606.37 233.03 604.92 232.99 603.49 232.62 602.57 232.25 601.73 231.37 600.55 230.53 599.92 229.45 599.26 228.34 599.03 226.71 599.05 225.34 599.33 223.92 599.94 222.57 600.9 221.53 602.02 220.4 603.64 220.12 604.71 219.93 606.35 219.84 613.96 220.07 620.46 223.54 620.64 233.26 620.36 236.12 619.67 238.29 618.21 239.79 616.16 240.55 613.7 240.53 611.14 239.96 609.43 238.28 607.49 236.29 606.54 234.34 606.37 232.87 606.37"/><polygon class="cls-1" points="185.56 598.19 183.39 597.88 181.24 597.88 179.86 598.44 178.6 599.01 176.81 600.39 175.84 601.74 174.83 603.46 174.46 605.26 174.45 607.9 174.83 610.14 175.71 612.47 177.12 614.71 178.77 616.44 181.16 618.35 182.77 618.85 185.21 619.21 196.6 619.67 206.33 619.56 206.69 613.92 206.5 598.12 205.53 593.45 203.4 589.86 200.37 587.34 196.71 586 192.87 585.94 190.3 586.79 187.35 589.44 185.9 592.64 185.58 595.8 185.56 598.19"/><polygon class="cls-2" points="190.04 602.94 187.87 602.63 185.72 602.63 184.34 603.19 183.08 603.75 181.29 605.14 180.32 606.48 179.31 608.2 178.94 610.01 178.93 612.65 179.31 614.88 180.19 617.22 181.6 619.46 183.25 621.19 185.64 623.1 187.25 623.59 189.69 623.96 201.08 624.42 210.81 624.3 211.17 618.67 210.98 602.87 210.01 598.2 207.88 594.61 204.85 592.09 201.19 590.75 197.35 590.69 194.78 591.54 191.83 594.19 190.38 597.39 190.06 600.55 190.04 602.94"/><polygon class="cls-2" points="228.52 610.14 228.68 608.69 228.65 607.26 228.28 606.34 227.91 605.5 227.03 604.32 226.18 603.69 225.11 603.03 224 602.8 222.37 602.82 221 603.1 219.58 603.71 218.22 604.67 217.19 605.79 216.05 607.41 215.77 608.48 215.59 610.12 215.49 617.73 215.72 624.23 219.2 624.42 228.91 624.13 231.77 623.44 233.95 621.98 235.45 619.93 236.21 617.48 236.18 614.91 235.62 613.2 233.94 611.26 231.94 610.32 230 610.14 228.52 610.14"/><polygon class="cls-2" points="229.49 641.62 230.93 641.84 232.36 641.86 233.29 641.53 234.15 641.19 235.36 640.36 236.03 639.54 236.73 638.49 237 637.38 237.04 635.76 236.82 634.38 236.27 632.94 235.35 631.54 234.27 630.46 232.71 629.27 231.64 628.95 230.02 628.7 222.41 628.31 215.91 628.29 215.59 631.75 215.49 641.47 216.07 644.35 217.45 646.58 219.44 648.16 221.86 649.02 224.42 649.09 226.16 648.59 228.16 646.99 229.18 645.04 229.43 643.1 229.49 641.62"/><polygon class="cls-2" points="189.79 649.55 189.49 651.72 189.51 653.87 190.08 655.25 190.66 656.5 192.06 658.28 193.41 659.24 195.14 660.23 196.95 660.59 199.59 660.58 201.82 660.17 204.15 659.28 206.38 657.85 208.09 656.18 209.98 653.78 210.46 652.17 210.81 649.72 211.17 638.33 210.98 628.6 205.34 628.29 189.54 628.61 184.88 629.61 181.31 631.78 178.81 634.83 177.5 638.49 177.47 642.34 178.35 644.91 181.02 647.83 184.23 649.26 187.4 649.54 189.79 649.55"/></svg>