<?xml version="1.0" encoding="UTF-8"?>
<svg id="Layer_1" data-name="Layer 1" xmlns="http://www.w3.org/2000/svg" viewBox="0 0 69.52 79.35">
  <defs>
    <style>
      .cls-1 {
        opacity: .5;
      }

      .cls-1, .cls-2 {
        fill: #e2aed0;
      }

      .cls-2 {
        stroke: #8052a1;
        stroke-miterlimit: 10;
        stroke-width: 2px;
      }
    </style>
  </defs>
  <polygon class="cls-1" points="12.32 68.32 12.02 70.48 12.04 72.63 12.61 74.01 13.19 75.27 14.58 77.04 15.94 78 17.67 79 19.47 79.35 22.12 79.34 24.35 78.94 26.67 78.04 28.91 76.61 30.62 74.94 32.51 72.54 32.99 70.93 33.34 68.49 33.7 57.09 33.5 47.36 27.86 47.05 12.07 47.38 7.41 48.38 3.83 50.54 1.34 53.6 .03 57.26 0 61.1 .87 63.67 3.55 66.59 6.76 68.02 9.92 68.31 12.32 68.32"/>
  <polygon class="cls-1" points="61.97 59.96 63.41 60.18 64.84 60.2 65.77 59.86 66.63 59.53 67.84 58.69 68.51 57.87 69.21 56.83 69.48 55.72 69.52 54.09 69.3 52.72 68.75 51.27 67.83 49.88 66.75 48.8 65.19 47.6 64.12 47.28 62.5 47.03 54.89 46.64 48.39 46.62 48.07 50.09 47.97 59.81 48.55 62.69 49.93 64.92 51.92 66.5 54.34 67.35 56.9 67.43 58.64 66.93 60.64 65.33 61.66 63.37 61.91 61.43 61.97 59.96"/>
  <polygon class="cls-1" points="61.42 20.43 61.58 18.98 61.54 17.55 61.18 16.63 60.8 15.79 59.93 14.61 59.08 13.98 58.01 13.32 56.89 13.09 55.26 13.11 53.9 13.39 52.48 14 51.12 14.96 50.08 16.08 48.95 17.7 48.67 18.77 48.48 20.41 48.39 28.02 48.62 34.52 52.1 34.7 61.81 34.42 64.67 33.73 66.84 32.27 68.34 30.22 69.11 27.77 69.08 25.2 68.51 23.49 66.83 21.55 64.84 20.61 62.89 20.43 61.42 20.43"/>
  <polygon class="cls-1" points="14.11 12.26 11.94 11.94 9.8 11.94 8.41 12.5 7.15 13.07 5.36 14.45 4.39 15.8 3.38 17.52 3.01 19.32 3 21.96 3.39 24.2 4.26 26.53 5.67 28.78 7.33 30.5 9.72 32.41 11.32 32.91 13.76 33.27 25.15 33.73 34.89 33.62 35.24 27.98 35.05 12.18 34.09 7.51 31.95 3.92 28.92 1.4 25.27 .06 21.42 0 18.85 .85 15.91 3.5 14.45 6.7 14.14 9.86 14.11 12.26"/>
  <polygon class="cls-2" points="18.59 17 16.42 16.69 14.28 16.69 12.89 17.25 11.63 17.82 9.84 19.2 8.87 20.54 7.86 22.27 7.49 24.07 7.48 26.71 7.87 28.95 8.74 31.28 10.15 33.52 11.81 35.25 14.19 37.16 15.8 37.65 18.24 38.02 29.63 38.48 39.37 38.36 39.72 32.73 39.53 16.93 38.57 12.26 36.43 8.67 33.4 6.15 29.75 4.81 25.9 4.75 23.33 5.6 20.39 8.25 18.93 11.45 18.62 14.61 18.59 17"/>
  <polygon class="cls-2" points="57.08 24.21 57.23 22.76 57.2 21.32 56.83 20.4 56.46 19.56 55.58 18.39 54.74 17.75 53.66 17.09 52.55 16.87 50.92 16.88 49.55 17.16 48.13 17.77 46.77 18.74 45.74 19.86 44.6 21.47 44.33 22.55 44.14 24.18 44.05 31.79 44.28 38.29 47.75 38.48 57.47 38.19 60.32 37.5 62.5 36.04 64 33.99 64.76 31.54 64.74 28.97 64.17 27.26 62.49 25.32 60.5 24.38 58.55 24.2 57.08 24.21"/>
  <polygon class="cls-2" points="58.04 55.69 59.48 55.9 60.91 55.92 61.85 55.59 62.7 55.25 63.91 54.42 64.58 53.6 65.28 52.55 65.55 51.45 65.59 49.82 65.37 48.44 64.82 47 63.91 45.6 62.83 44.53 61.26 43.33 60.19 43.01 58.57 42.76 50.96 42.37 44.46 42.35 44.14 45.81 44.05 55.53 44.62 58.41 46 60.64 47.99 62.22 50.41 63.08 52.98 63.15 54.71 62.65 56.71 61.05 57.73 59.1 57.99 57.16 58.04 55.69"/>
  <polygon class="cls-2" points="18.34 63.61 18.04 65.78 18.06 67.93 18.63 69.31 19.21 70.57 20.61 72.34 21.96 73.3 23.69 74.29 25.5 74.65 28.14 74.64 30.37 74.23 32.7 73.34 34.93 71.91 36.65 70.24 38.53 67.84 39.02 66.23 39.36 63.79 39.72 52.39 39.53 42.66 33.89 42.35 18.09 42.67 13.43 43.68 9.86 45.84 7.36 48.89 6.05 52.56 6.03 56.4 6.9 58.97 9.57 61.89 12.79 63.32 15.95 63.6 18.34 63.61"/>
</svg>