<?xml version="1.0" encoding="UTF-8"?>
<svg id="Layer_1" data-name="Layer 1" xmlns="http://www.w3.org/2000/svg" viewBox="0 0 359.48 69.02">
  <defs>
    <style>
      .cls-1 {
        stroke: #fff;
      }

      .cls-1, .cls-2, .cls-3, .cls-4 {
        stroke-miterlimit: 10;
      }

      .cls-1, .cls-5 {
        fill: #e1aed0;
      }

      .cls-6, .cls-2 {
        fill: #fff;
      }

      .cls-2, .cls-3 {
        stroke-width: 3px;
      }

      .cls-2, .cls-3, .cls-4 {
        stroke: #8052a1;
      }

      .cls-3 {
        fill: none;
      }

      .cls-7, .cls-4 {
        fill: #8052a1;
      }

      .cls-4 {
        stroke-width: .75px;
      }
    </style>
  </defs>
  <polygon class="cls-3" points="1.5 55.12 1.5 7.2 2.99 4.69 4.7 3.21 6.08 2.18 7.45 1.5 26.91 1.5 29.54 2.41 30.91 3.1 32.17 3.9 33.77 5.15 35.83 7.43 38.01 10.28 39.04 12.57 39.61 15.3 39.61 18.38 39.61 21.92 38.58 25.12 37.43 27.51 36.4 28.88 39.04 30.79 40.98 33.22 42.47 35.95 43.16 38.35 43.96 41.66 43.96 44.4 43.39 47.7 42.24 50.44 40.87 52.95 37.43 56.94 34.69 58.88 31.48 61.05 22.73 64.7 13.52 60.25 11.46 60.94 9.63 61.28 7.34 60.82 5.16 59.68 3.22 58.31 2.07 57.17 1.5 55.12"/>
  <polygon class="cls-5" points="4.55 53.11 4.55 10.99 4.55 10.1 4.64 9.21 4.9 8.27 5.26 7.53 5.73 6.8 6.3 6.22 6.95 5.71 7.64 5.35 8.3 5.12 8.92 5 23.61 5 24.45 5 25.6 5 26.3 5.16 26.94 5.31 27.89 5.58 28.54 5.83 29.35 6.11 29.98 6.47 30.86 6.95 31.42 7.29 31.94 7.68 32.5 8.15 33.02 8.62 33.55 9.14 34.14 9.87 34.7 10.6 35.25 11.44 35.79 12.41 36.16 13.32 36.61 14.46 36.94 15.39 37.21 16.55 37.39 17.82 37.47 18.51 37.47 19.28 37.47 20.27 37.36 20.96 37.15 21.82 36.74 23.24 36.1 24.66 35.62 25.55 35.06 26.45 34.42 27.23 33.68 28.2 32.93 29.06 32.15 30 33 30.44 33.98 31 34.72 31.38 35.39 31.86 35.88 32.24 36.66 32.95 37.3 33.58 37.9 34.44 38.42 35.19 38.98 36.05 39.35 36.83 39.65 37.58 39.95 38.44 40.32 39.44 40.59 40.41 40.81 41.39 40.91 42.06 40.91 42.93 40.91 44.15 40.78 45.34 40.54 46.46 40.24 47.49 39.22 49.85 38.07 51.82 37.22 52.76 35.68 54.36 34.16 55.55 32.59 56.72 30.25 58.14 23.46 61.2 13.65 56.15 12.65 55.23 12.23 54.58 11.66 53.44 11.53 52.49 11.53 51.49 11.71 50.65 11.95 49.75 12.23 49.15 12.7 48.61 13.55 47.88 14.02 47.68 14.69 47.51 15.47 47.36 16.19 47.36 17.06 47.49 17.81 47.81 18.33 48.11 19.05 48.53 23.81 52.44 24.18 51.99 24.7 51.22 25.5 50.35 26.44 49.63 27.54 49 28.44 48.61 29.73 47.91 30.5 47.29 30.98 46.74 31.3 46.14 31.6 45.27 31.67 44.4 31.72 42.85 31.47 41.86 31.03 40.81 30.48 39.97 29.63 39.33 28.54 38.87 27.54 38.72 26.35 38.97 25.5 39.33 24.75 39.87 24.3 40.51 23.86 41.51 23.36 40.66 22.51 39.77 21.71 39.33 20.97 39.02 20.12 38.92 19.13 38.92 17.98 39.33 16.83 40.07 16.04 41.06 15.84 41.81 15.64 46.09 14.54 46.14 13.3 46.34 12.3 46.79 11.71 47.29 10.86 48.73 10.41 49.74 10.21 50.77 10.16 51.97 10.31 53.21 10.61 54.31 10.96 55.35 11.56 56.3 12.35 57.24 12.85 57.59 12.2 57.94 11.26 58.04 10.01 58.04 8.77 57.84 7.42 57.29 6.58 56.8 5.63 55.86 5.13 55.15 4.55 54.11 4.55 53.11"/>
  <polygon class="cls-6" points="22.5 17.51 22.68 16.43 22.87 15.42 23.24 14.6 23.5 14.19 23.99 13.74 24.51 13.4 25.15 13.18 25.63 13.18 26.19 13.18 26.75 13.33 27.24 13.59 27.61 13.78 27.95 14 28.47 14.6 28.77 14.98 28.89 15.25 29.01 15.53 29.14 15.89 29.23 16.19 29.33 16.55 29.39 16.84 29.39 17.14 29.39 17.51 29.39 17.86 29.33 18.4 29.08 19.17 28.78 19.78 28.46 20.17 28.17 20.51 27.85 20.77 27.55 20.99 27.29 21.21 26.9 21.57 26.6 21.83 26.22 22.3 25.94 22.75 25.68 23.18 25.46 23.6 25.23 24.3 25.14 25.08 24.56 24.61 24.08 24.24 23.63 24.02 23.18 23.85 22.5 23.64 22 23.57 21.2 23.46 20.7 23.38 20.17 23.31 19.58 23.19 18.98 23.08 18.4 22.78 17.71 22.35 17.22 21.91 16.78 21.29 16.44 20.73 16.18 20.02 16.07 19.13 16.07 18.43 16.23 17.69 16.61 16.94 16.85 16.55 17.24 16.14 17.67 15.95 18.31 15.73 18.81 15.69 19.58 15.69 20.06 15.78 20.57 16.01 20.9 16.15 21.59 16.62 22.5 17.51"/>
  <polygon class="cls-3" points="225.13 57.79 225.13 9.88 226.62 7.37 228.34 5.88 229.71 4.86 231.08 4.17 250.54 4.17 253.17 5.08 254.54 5.77 255.8 6.57 257.4 7.82 259.46 10.1 261.64 12.96 262.67 15.24 263.24 17.98 263.24 21.06 263.24 24.59 262.21 27.79 261.07 30.18 260.04 31.55 262.67 33.46 264.61 35.89 266.1 38.62 266.79 41.02 267.59 44.33 267.59 47.07 267.02 50.38 265.87 53.11 264.5 55.62 261.07 59.62 258.32 61.56 255.12 63.72 246.36 67.37 237.15 62.92 235.09 63.61 233.26 63.95 230.97 63.5 228.79 62.35 226.85 60.99 225.7 59.84 225.13 57.79"/>
  <polygon class="cls-5" points="228.18 55.78 228.18 13.66 228.18 12.77 228.27 11.88 228.53 10.94 228.89 10.2 229.36 9.48 229.94 8.89 230.58 8.38 231.27 8.02 231.93 7.8 232.55 7.67 247.24 7.67 248.09 7.67 249.23 7.67 249.93 7.83 250.57 7.98 251.52 8.26 252.17 8.51 252.98 8.79 253.61 9.14 254.49 9.63 255.05 9.96 255.57 10.35 256.13 10.82 256.66 11.29 257.18 11.81 257.78 12.54 258.34 13.27 258.88 14.11 259.42 15.08 259.79 15.99 260.24 17.13 260.58 18.07 260.84 19.22 261.02 20.49 261.1 21.18 261.1 21.95 261.1 22.94 260.99 23.63 260.78 24.49 260.37 25.91 259.74 27.33 259.25 28.22 258.69 29.12 258.06 29.9 257.31 30.87 256.56 31.73 255.78 32.67 256.64 33.12 257.61 33.68 258.35 34.05 259.03 34.53 259.51 34.91 260.3 35.62 260.93 36.25 261.53 37.11 262.05 37.86 262.61 38.72 262.99 39.5 263.28 40.25 263.58 41.11 263.96 42.12 264.22 43.09 264.44 44.06 264.54 44.73 264.54 45.6 264.54 46.82 264.42 48.02 264.17 49.14 263.87 50.16 262.85 52.52 261.7 54.49 260.86 55.43 259.31 57.03 257.79 58.22 256.23 59.39 253.89 60.81 247.09 63.87 237.28 58.82 236.28 57.9 235.86 57.25 235.29 56.11 235.16 55.16 235.16 54.16 235.34 53.32 235.59 52.42 235.86 51.82 236.33 51.28 237.18 50.55 237.65 50.36 238.33 50.18 239.1 50.03 239.82 50.03 240.69 50.16 241.44 50.48 241.96 50.78 242.68 51.2 247.44 55.11 247.81 54.66 248.33 53.89 249.13 53.02 250.08 52.3 251.17 51.68 252.07 51.28 253.36 50.58 254.13 49.96 254.61 49.41 254.93 48.81 255.23 47.94 255.3 47.07 255.35 45.53 255.11 44.53 254.66 43.48 254.11 42.64 253.26 42 252.17 41.54 251.17 41.39 249.98 41.64 249.13 42 248.38 42.54 247.94 43.19 247.49 44.18 246.99 43.33 246.14 42.44 245.35 42 244.6 41.69 243.75 41.59 242.76 41.59 241.61 42 240.47 42.74 239.67 43.73 239.47 44.48 239.27 48.76 238.18 48.81 236.93 49.01 235.94 49.46 235.34 49.96 234.49 51.4 234.04 52.41 233.84 53.44 233.79 54.64 233.94 55.88 234.24 56.98 234.59 58.02 235.19 58.97 235.99 59.92 236.48 60.26 235.84 60.61 234.89 60.71 233.65 60.71 232.4 60.51 231.06 59.97 230.21 59.47 229.26 58.54 228.77 57.82 228.18 56.78 228.18 55.78"/>
  <polygon class="cls-6" points="243.83 21.28 244.02 20.2 244.2 19.19 244.58 18.37 244.84 17.96 245.32 17.51 245.85 17.17 246.48 16.95 246.97 16.95 247.53 16.95 248.09 17.1 248.57 17.36 248.95 17.55 249.28 17.77 249.81 18.37 250.1 18.75 250.23 19.01 250.34 19.3 250.48 19.66 250.56 19.96 250.66 20.32 250.73 20.61 250.73 20.91 250.73 21.28 250.73 21.63 250.66 22.16 250.42 22.94 250.12 23.55 249.8 23.94 249.5 24.27 249.18 24.53 248.88 24.76 248.62 24.98 248.23 25.34 247.93 25.6 247.56 26.07 247.28 26.51 247.02 26.94 246.79 27.37 246.57 28.06 246.48 28.85 245.9 28.38 245.41 28.01 244.96 27.78 244.51 27.62 243.83 27.41 243.34 27.34 242.54 27.22 242.03 27.15 241.51 27.07 240.91 26.96 240.31 26.85 239.73 26.55 239.04 26.12 238.56 25.67 238.11 25.06 237.77 24.5 237.51 23.79 237.4 22.9 237.4 22.2 237.57 21.45 237.94 20.71 238.18 20.31 238.58 19.9 239.01 19.72 239.64 19.49 240.15 19.46 240.91 19.46 241.4 19.55 241.9 19.77 242.24 19.92 242.93 20.39 243.83 21.28"/>
  <polygon class="cls-2" points="82.47 48.42 84.26 48.12 85.86 47.67 87.6 46.63 88.2 45.93 88.65 45.18 89.44 43.99 89.74 42.99 89.99 41.35 89.99 39.81 89.99 38.36 89.69 37.22 89.04 34.93 88.45 33.48 87.7 32.29 86.95 31.04 86.23 30 85.21 28.95 84.21 27.96 82.47 26.54 80.93 25.64 78.99 24.67 77.19 24.07 75.48 23.62 72.56 23.1 70.55 23.1 62.03 23.1 59.64 23.85 58.45 24.3 56.65 25.04 54.79 26.16 53.44 27.36 52.17 28.48 49.71 31.69 48.81 33.71 48.07 35.76 47.54 38.11 47.09 40.88 47.09 42.89 47.09 45.21 47.09 47.45 47.54 49.76 47.99 51.63 48.96 54.25 50.23 56.49 52.25 59.25 54.26 61.19 55.83 62.31 57.7 63.28 59.87 64.18 62.41 64.7 81.15 64.7 82.57 64.18 84.21 63.51 85.41 62.54 86.53 61.27 87.35 59.7 87.95 57.91 88.1 56.26 87.87 54.62 87.43 52.98 86.75 51.48 85.63 50.29 84.44 49.39 82.47 48.42"/>
  <polyline class="cls-5" points="59.49 45.24 84.38 45.24 85.78 44.25 86.37 43.15 86.97 41.66 86.97 40.36 86.97 38.87 86.57 36.98 85.48 33.89 84.18 32.4 82.89 30.8 81 29.51 78.41 28.31 76.32 27.42 73.63 26.72 70.94 26.32 68.86 26.1 68.24 26.1 67.5 26.02 66.66 26.02 65.46 26.02 64.27 26.14 63.37 26.21 62.27 26.38 60.77 26.73 59.84 27.03 59.23 27.26 58.42 27.63 57.82 27.98 57.13 28.39 56.16 29.09 55.36 29.76 54.26 30.85 53.17 32.15 52.27 33.74 51.58 35.63 50.98 37.23 50.58 38.92 50.32 40.11 50.23 41.18 50.11 41.79 50.11 42.49 50.11 43.23 50.11 43.94 50.11 44.95 50.11 45.92 50.21 46.8 50.36 47.79 50.45 48.55 50.58 49.1 50.84 50.22 51.13 51.34 51.36 52.1 51.6 52.76 51.85 53.25 52.12 53.91 52.37 54.35 52.63 54.83 53.62 56.42 54.44 57.31 54.99 57.83 55.43 58.23 55.91 58.62 56.28 58.92 56.97 59.37 57.64 59.78 58 60.03 58.42 60.25 59.17 60.57 59.51 60.73 60.16 61 60.9 61.22 62.01 61.48 63.31 61.69 64.01 61.78 80.36 61.78 81.39 61.54 82.25 61.16 82.82 60.86 83.36 60.39 83.94 59.75 84.16 59.49 84.49 59.03 84.87 58.03 85.05 57.37 85.12 57 85.13 56.59 85.13 56.19 85.1 55.74 85 55.15 84.93 54.9 84.87 54.68 84.77 54.4 84.62 54.1 84.44 53.71 84.2 53.31 83.99 53.03 83.7 52.7 83.41 52.42 83.04 52.1 82.66 51.83 82.23 51.59 81.7 51.34 80.88 51.1 64.72 50.81 64.05 50.71 63.1 50.41 62.48 50.07 61.93 49.64 61.34 49.22 60.52 48.25 60.12 47.63 59.77 47.03 59.49 46.31 59.32 45.48 59.22 45.19"/>
  <polygon class="cls-6" points="68.31 32.46 68.5 31.38 68.68 30.37 69.06 29.55 69.32 29.14 69.8 28.69 70.33 28.36 70.96 28.13 71.45 28.13 72.01 28.13 72.57 28.28 73.05 28.54 73.43 28.73 73.76 28.95 74.28 29.55 74.58 29.94 74.71 30.2 74.82 30.48 74.96 30.84 75.04 31.14 75.14 31.5 75.21 31.79 75.21 32.09 75.21 32.46 75.21 32.81 75.14 33.35 74.89 34.12 74.6 34.73 74.28 35.12 73.98 35.46 73.66 35.72 73.36 35.94 73.1 36.17 72.71 36.52 72.41 36.78 72.04 37.25 71.76 37.7 71.5 38.13 71.27 38.56 71.05 39.25 70.95 40.03 70.38 39.56 69.89 39.19 69.44 38.97 68.99 38.8 68.31 38.59 67.82 38.52 67.01 38.41 66.51 38.33 65.99 38.26 65.39 38.15 64.79 38.03 64.21 37.73 63.52 37.31 63.04 36.86 62.59 36.24 62.25 35.68 61.99 34.97 61.88 34.08 61.88 33.38 62.05 32.64 62.42 31.89 62.66 31.5 63.06 31.09 63.49 30.9 64.12 30.68 64.62 30.64 65.39 30.64 65.88 30.73 66.38 30.96 66.72 31.11 67.41 31.57 68.31 32.46"/>
  <polygon class="cls-7" points="82.7 47.4 62.81 47.4 62.93 47.94 63.13 48.34 63.5 48.59 63.82 48.79 64.21 49 64.8 49.2 65.63 49.4 66.8 49.51 82.56 49.51 82.7 47.4"/>
  <polygon class="cls-2" points="350.46 47.26 352.25 46.96 353.85 46.51 355.59 45.46 356.19 44.77 356.63 44.02 357.43 42.82 357.73 41.83 357.98 40.18 357.98 38.64 357.98 37.2 357.68 36.05 357.03 33.76 356.44 32.32 355.69 31.12 354.94 29.88 354.22 28.83 353.2 27.79 352.2 26.79 350.46 25.37 348.92 24.48 346.97 23.5 345.18 22.91 343.46 22.46 340.55 21.94 338.53 21.94 330.02 21.94 327.63 22.68 326.44 23.13 324.64 23.88 322.78 25 321.43 26.19 320.16 27.31 317.7 30.52 316.8 32.54 316.05 34.6 315.53 36.95 315.08 39.71 315.08 41.73 315.08 44.04 315.08 46.28 315.53 48.6 315.98 50.47 316.95 53.08 318.22 55.32 320.24 58.09 322.25 60.03 323.82 61.15 325.69 62.12 327.85 63.01 330.39 63.54 349.14 63.54 350.56 63.01 352.2 62.34 353.4 61.37 354.52 60.1 355.34 58.53 355.94 56.74 356.09 55.1 355.86 53.45 355.41 51.81 354.74 50.32 353.62 49.12 352.43 48.23 350.46 47.26"/>
  <polyline class="cls-5" points="327.47 44.08 352.37 44.08 353.77 43.08 354.36 41.99 354.96 40.49 354.96 39.2 354.96 37.7 354.56 35.81 353.47 32.73 352.17 31.23 350.88 29.64 348.99 28.34 346.4 27.15 344.3 26.25 341.62 25.56 338.93 25.16 336.85 24.93 336.23 24.93 335.49 24.86 334.64 24.86 333.45 24.86 332.25 24.97 331.36 25.04 330.26 25.21 328.76 25.57 327.83 25.87 327.21 26.09 326.41 26.46 325.81 26.82 325.12 27.23 324.15 27.92 323.35 28.59 322.25 29.69 321.16 30.98 320.26 32.58 319.56 34.47 318.97 36.06 318.57 37.75 318.31 38.95 318.21 40.01 318.1 40.63 318.1 41.32 318.1 42.07 318.1 42.78 318.1 43.79 318.1 44.76 318.19 45.63 318.34 46.62 318.44 47.39 318.57 47.93 318.83 49.05 319.12 50.17 319.35 50.93 319.59 51.59 319.84 52.09 320.11 52.75 320.36 53.18 320.62 53.67 321.61 55.25 322.43 56.15 322.97 56.67 323.42 57.07 323.9 57.45 324.27 57.75 324.95 58.2 325.63 58.61 325.99 58.86 326.41 59.08 327.16 59.41 327.49 59.57 328.15 59.83 328.89 60.06 330 60.32 331.3 60.53 332 60.62 348.34 60.62 349.38 60.38 350.24 59.99 350.81 59.69 351.34 59.22 351.93 58.59 352.15 58.32 352.48 57.86 352.86 56.87 353.03 56.21 353.1 55.83 353.12 55.43 353.12 55.02 353.09 54.57 352.98 53.98 352.91 53.73 352.86 53.52 352.76 53.24 352.61 52.93 352.43 52.54 352.19 52.15 351.98 51.87 351.69 51.53 351.4 51.25 351.03 50.93 350.65 50.66 350.22 50.42 349.69 50.18 348.87 49.94 332.71 49.65 332.04 49.55 331.09 49.25 330.47 48.9 329.92 48.48 329.32 48.05 328.5 47.08 328.1 46.46 327.76 45.86 327.48 45.14 327.31 44.32 327.21 44.02"/>
  <polygon class="cls-6" points="336.3 31.3 336.48 30.21 336.67 29.21 337.04 28.38 337.31 27.97 337.79 27.53 338.31 27.19 338.95 26.97 339.43 26.97 339.99 26.97 340.55 27.12 341.04 27.38 341.41 27.56 341.75 27.79 342.27 28.38 342.57 28.77 342.7 29.03 342.81 29.32 342.94 29.68 343.03 29.98 343.13 30.34 343.19 30.63 343.19 30.92 343.19 31.3 343.19 31.65 343.13 32.18 342.88 32.95 342.58 33.56 342.27 33.96 341.97 34.29 341.65 34.55 341.35 34.78 341.09 35 340.7 35.36 340.4 35.62 340.03 36.08 339.75 36.53 339.48 36.96 339.26 37.39 339.04 38.08 338.94 38.87 338.36 38.4 337.88 38.03 337.43 37.8 336.98 37.63 336.3 37.43 335.81 37.35 335 37.24 334.5 37.17 333.98 37.09 333.38 36.98 332.78 36.87 332.2 36.57 331.51 36.14 331.03 35.69 330.58 35.08 330.24 34.52 329.98 33.81 329.87 32.92 329.87 32.22 330.04 31.47 330.41 30.73 330.65 30.33 331.04 29.92 331.47 29.74 332.11 29.51 332.61 29.47 333.38 29.47 333.86 29.57 334.37 29.79 334.7 29.94 335.39 30.41 336.3 31.3"/>
  <polygon class="cls-7" points="350.69 46.24 330.8 46.24 330.92 46.77 331.12 47.18 331.49 47.42 331.8 47.63 332.2 47.83 332.78 48.04 333.62 48.24 334.79 48.34 350.55 48.34 350.69 46.24"/>
  <polyline class="cls-2" points="92.05 25.48 92.65 58.05 93.69 61.48 95.34 63.28 97.88 64.92 100.71 64.92 102.81 64.17 104.75 63.28 105.94 61.48 106.84 59.69 106.84 56.85 107.59 39.82 108.93 37.43 111.32 36.54 113.26 36.54 114.91 36.84 116.25 38.18 117 40.27 117 56.7 117 58.65 117.74 60.74 119.24 62.98 121.93 64.92 124.62 65.82 127.01 65.82 128.5 65.22 129.99 64.17 131.04 62.83 132.53 60.89 132.53 58.2 132.53 33.4 130.44 30.11 128.5 28.02 126.26 26.23 123.12 24.59 120.58 23.54 116.4 22.65 111.47 22.65 107.29 24.29 105.79 21.9 103.85 20.55 101.31 19.66 98.47 19.66 96.23 20.55 94.44 21.9 93.1 23.84"/>
  <polygon class="cls-4" points="92.27 23.22 91.04 25.53 93.07 25.47 93.96 24.38 92.27 23.22"/>
  <polygon class="cls-1" points="104.88 29.78 105.31 29.27 105.93 28.66 106.71 28 107.48 27.44 109.42 26.47 111.53 25.86 113.01 25.6 114.93 25.45 116.96 25.61 118.36 25.82 120.06 26.12 120.92 26.38 122.21 26.9 123.37 27.52 124.32 28.04 125.44 28.86 126.17 29.52 126.99 30.36 127.81 31.38 128.71 32.9 129.18 33.79 129.59 34.91 129.79 35.68 130.02 36.78 130.17 39.58 130.17 40.87 130.09 58.96 129.79 60.14 129.42 60.81 129.08 61.24 128.56 61.78 127.85 62.36 127.2 62.73 126.47 63.01 125.4 63.25 125.13 63.28 124.67 63.28 124.25 63.24 123.63 63.16 123.09 63.02 122.69 62.87 122.46 62.77 122.14 62.61 121.62 62.28 121.02 61.8 120.58 61.3 120.45 61.13 120.3 60.92 120.17 60.72 120.09 60.57 119.99 60.39 119.87 60.14 119.74 59.81 119.67 59.6 119.5 58.98 119.45 58.54 119.31 41.09 119.26 40.54 119.21 40.2 119.11 39.72 118.95 39.15 118.78 38.68 118.5 38.07 118.14 37.49 117.85 37.08 117.42 36.58 116.92 36.14 116.53 35.84 116.07 35.54 115.48 35.27 114.98 35.05 114.55 34.89 114.02 34.75 113.24 34.6 112.72 34.58 112.07 34.57 111.7 34.59 111.01 34.66 110.01 34.9 109.71 35.01 108.87 35.35 107.88 36.01 107.42 36.39 107.1 36.69 106.56 37.36 106.18 37.93 105.73 38.88 105.53 39.63 105.39 40.49 105.34 41.62 105.19 58.26 105.03 59.27 104.88 59.76 104.72 60.14 104.52 60.53 104.32 60.85 103.81 61.51 103.56 61.76 103.17 62.12 102.59 62.5 102.08 62.79 101.62 62.97 101.07 63.14 100.58 63.22 99.99 63.28 99.43 63.28 99.02 63.22 98.45 63.11 98.02 62.99 97.29 62.68 96.6 62.27 96.2 61.91 95.95 61.69 95.57 61.29 95.31 60.92 95.06 60.5 94.76 59.93 94.5 58.89 94.42 58.27 94.42 57.57 94.42 53.03 94.42 47.62 94.42 42.05 94.42 37.19 94.42 34.54 94.42 29.98 94.42 27.35 94.48 26.7 94.57 26.24 94.72 25.73 95.06 24.94 95.29 24.53 95.95 23.75 96.48 23.33 97.26 22.82 98.02 22.51 98.7 22.3 99.37 22.2 99.97 22.2 100.53 22.2 101.02 22.28 101.57 22.37 101.92 22.51 102.47 22.74 102.95 23.01 103.35 23.33 103.76 23.69 104.11 24.14 104.43 24.74 104.62 25.32 104.72 25.85 104.77 26.58 104.78 27.26 104.82 28.04 104.85 28.88 104.88 29.78"/>
  <polygon class="cls-3" points="152.09 42.1 151.29 42.52 150.59 43.04 150.27 43.59 150.02 44.04 149.87 44.74 149.7 45.56 149.7 46.18 149.82 46.83 149.94 47.38 150.12 47.92 150.47 48.55 151.01 49.17 151.59 49.52 151.8 49.62 152.04 49.71 152.35 49.79 152.74 49.87 153.17 49.91 166.85 49.95 167.26 49.96 167.54 49.98 167.79 49.99 168.04 50.02 168.31 50.06 168.7 50.11 168.97 50.17 169.3 50.25 169.69 50.35 170.42 50.6 170.82 50.77 171.29 51 171.81 51.31 172.38 51.7 172.97 52.18 173.48 52.69 174.02 53.31 174.24 53.59 174.55 54.04 174.79 54.44 175.13 55.06 175.6 56.1 175.75 56.55 175.84 56.91 175.9 57.43 175.9 58 175.72 58.99 175.66 59.58 175.59 60.02 175.48 60.55 175.35 60.95 175.15 61.55 174.88 62.13 174.32 63.1 173.35 64.29 172.49 65 171.78 65.52 171.18 65.86 170.4 66.2 169.69 66.46 168.87 66.64 168.3 66.72 151.78 66.77 151.12 66.72 150.57 66.69 150.14 66.64 149.36 66.53 148.67 66.41 147.83 66.21 147.29 66.05 146.49 65.79 145.72 65.49 145.19 65.25 144.91 65.12 144.55 64.94 144.1 64.71 143.75 64.5 143.23 64.19 142.94 63.99 142.4 63.63 141.97 63.32 141.58 62.97 141.24 62.69 140.95 62.45 140.51 62.02 139.79 61.3 139.16 60.53 138.67 59.96 138.17 59.29 137.7 58.47 137.25 57.69 136.67 56.52 136.25 55.55 135.93 54.68 135.52 53.36 135.17 51.89 134.89 50.37 134.61 48.74 134.68 43.1 134.78 42.34 134.89 41.57 135.01 40.92 135.18 40 135.52 38.58 135.77 37.71 136 36.96 136.24 36.33 136.43 35.86 136.62 35.44 136.88 34.87 137.2 34.25 137.38 33.92 137.57 33.57 137.86 33.1 138.14 32.66 138.68 31.9 139.3 31.13 139.96 30.36 140.61 29.73 141.31 29.08 142.03 28.48 142.73 27.98 143.58 27.42 144.19 27.09 144.81 26.76 145.47 26.46 146.03 26.22 146.59 26 146.95 25.9 147.41 25.75 147.82 25.63 148.38 25.5 149.17 25.34 149.76 25.26 150.35 25.2 150.81 25.16 151.15 25.14 151.67 25.12 152.04 25.12 167.63 25.08 167.98 25.11 168.24 25.13 169.17 25.27 169.69 25.41 170.09 25.55 170.63 25.75 171.02 25.93 171.37 26.12 171.95 26.45 172.29 26.72 172.78 27.07 173.08 27.35 173.43 27.69 173.77 28.07 174.1 28.5 174.44 28.96 174.73 29.42 174.93 29.75 175.28 30.43 175.59 31.21 175.6 35.69 175.48 35.97 175.19 36.65 175.03 36.96 174.67 37.62 174.41 38.03 173.78 38.82 173.31 39.33 172.6 40 172.12 40.34 171.59 40.68 170.87 41.05 170.21 41.33 169.52 41.56 168.84 41.73 168.21 41.82 167.75 41.87 167.49 41.89 152.95 41.92 152.79 41.96 152.54 42 152.32 42.05 152.09 42.1"/>
  <polygon class="cls-5" points="152.35 53.06 168.05 53.26 168.82 53.37 169.56 53.65 170.4 54.08 171.06 54.55 171.58 55.09 172.06 55.84 172.53 56.9 172.77 57.85 172.77 58.45 172.77 59.26 172.57 60.13 172.33 60.86 171.99 61.46 171.51 62.17 171.14 62.5 170.56 63.01 169.81 63.45 168.95 63.76 168.45 63.89 167.89 63.97 167.77 63.99 167.58 64 167.4 64.01 152.05 63.97 151.68 63.94 151.19 63.9 150.7 63.85 150.25 63.78 149.79 63.69 149.25 63.58 148.68 63.43 148.27 63.3 148 63.22 147.81 63.16 147.59 63.08 147.36 62.99 147.2 62.93 146.99 62.84 146.65 62.7 146.23 62.49 145.95 62.36 145.71 62.24 145.42 62.07 145.09 61.88 144.78 61.69 144.51 61.51 144.24 61.32 143.95 61.11 143.67 60.9 143.37 60.65 143.16 60.48 142.98 60.31 142.57 59.92 142.28 59.64 142.05 59.39 141.84 59.14 141.54 58.8 141.3 58.5 140.95 58.03 140.71 57.7 140.3 57.05 140.02 56.56 139.74 56 139.32 55.05 139.02 54.32 138.77 53.47 138.47 52.43 138.26 51.47 138.12 50.7 138.05 50.31 137.99 49.86 137.83 48.71 137.72 47.08 137.72 46.22 137.72 45.67 137.74 45.22 137.76 44.74 137.81 44.04 137.85 43.44 137.92 43.04 138.03 42.12 138.31 40.58 138.6 39.42 138.92 38.36 139.37 37.14 139.75 36.29 140.52 34.95 141.47 33.57 142.68 32.3 143.88 31.29 145.67 30.15 147.2 29.38 148.75 28.88 150.32 28.54 150.85 28.46 151.33 28.41 152.41 28.34 167.98 28.34 168.64 28.47 169.1 28.6 169.46 28.73 169.81 28.88 170.08 29.02 170.62 29.37 170.83 29.54 171.09 29.75 171.28 29.94 171.57 30.26 171.74 30.46 171.88 30.67 172.27 31.33 172.57 32.09 172.71 32.75 172.77 33.09 172.8 33.55 172.8 33.81 172.78 34.06 172.75 34.44 172.7 34.74 172.62 35.05 172.43 35.69 172.27 36.05 172.1 36.38 171.87 36.77 171.62 37.13 171.36 37.38 171.03 37.74 170.58 38.1 170.2 38.33 169.69 38.61 169.05 38.87 168.25 39.01 153.47 39.15 153.26 39.16 153.02 39.18 152.62 39.24 152.22 39.31 151.82 39.4 151.42 39.53 150.96 39.71 150.58 39.88 150.22 40.07 149.91 40.27 149.62 40.47 149.32 40.7 149.03 40.95 148.73 41.25 148.49 41.53 148.3 41.75 148.13 41.98 147.96 42.24 147.85 42.42 147.72 42.64 147.64 42.8 147.56 42.94 147.46 43.17 147.39 43.32 147.32 43.5 147.27 43.66 147.14 44.08 147.05 44.4 146.92 45.05 146.87 45.55 146.83 46 146.84 46.41 146.88 46.86 146.93 47.39 147.03 47.8 147.15 48.38 147.3 48.77 147.62 49.52 147.81 49.84 148.05 50.24 148.33 50.62 148.6 50.93 148.98 51.33 149.52 51.79 150.04 52.13 150.53 52.43 151.17 52.71 151.67 52.87 152.02 52.98 152.35 53.06"/>
  <polyline class="cls-5" points="193.47 37.72 194.37 36.82 195.71 35.91 196.96 35.28 198.7 34.48 200.19 34.18 201.74 33.98 203.63 33.98 204.92 33.98 206.97 34.23 208.61 34.68 209.9 35.13 211.45 35.85 212.79 36.67 213.94 37.72 214.83 38.46 215.73 39.61 216.43 40.65 217.07 41.9 217.72 43.59 218.17 45.43 218.28 46.32 218.32 47.01 218.33 47.51 218.35 47.97 218.38 48.39 218.45 50.72 218.45 54.32 218.32 58.35 218.19 59.23 218.1 59.63 217.99 59.94 217.82 60.38 217.57 60.83 217.22 61.31 216.84 61.77 216.16 62.35 215.73 62.64 215.3 62.87 214.74 63.1 214.41 63.2 214 63.3 213.67 63.35 213.28 63.39 212.95 63.39 212.49 63.39 212.17 63.35 211.7 63.26 211.25 63.13 210.89 63.02 210.57 62.86 210.21 62.69 209.68 62.34 209.29 62.03 209.01 61.74 208.74 61.43 208.35 60.87 208.05 60.31 207.76 59.47 207.64 58.95 207.59 58.39 207.57 57.82 207.39 48.81 207.34 48.42 207.24 47.98 207.13 47.51 207.01 47.18 206.84 46.76 206.64 46.36 206.27 45.8 205.89 45.34 205.46 44.87 205.02 44.49 204.44 44.11 203.94 43.8 203.39 43.57 202.8 43.37 202.34 43.22 201.8 43.13 201.04 43.01 200.38 42.99 199.7 43.03 199.44 43.07 199.22 43.09 199.03 43.13 198.64 43.21 198.46 43.26 198.16 43.34 197.85 43.45 197.51 43.57 197.28 43.67 197.03 43.8 196.77 43.93 196.54 44.07 196.32 44.21 196.08 44.38 195.74 44.65 195.52 44.84 195.33 45.04 195.06 45.32 194.89 45.53 194.43 46.18 194.19 46.62 193.99 47.07 193.78 47.66 193.66 48.21 193.56 48.78 193.53 49.14 193.31 58.64 193.26 59.08 193.21 59.39 193.13 59.69 193.05 59.98 192.89 60.32 192.72 60.67 192.52 61.01 192.27 61.37 191.86 61.82 191.63 62.03 191.36 62.25 190.89 62.58 190.45 62.82 190.05 63.01 189.33 63.22 188.34 63.39 187.62 63.39 186.85 63.29 186.21 63.13 185.72 62.94 185.28 62.71 184.9 62.48 184.57 62.23 184.16 61.87 183.85 61.54 183.48 61.04 183.19 60.54 182.94 60.05 182.8 59.67 182.64 58.94 182.58 58.41 182.58 57.95 182.58 9.59 182.71 8.88 182.96 8.13 183.27 7.48 183.67 6.86 184.39 6.14 184.82 5.78 185.31 5.52 185.79 5.24 186.39 5.03 187.1 4.87 187.72 4.77 188.3 4.77 188.88 4.87 189.42 5.02 189.92 5.18 190.54 5.43 190.97 5.71 191.45 6.02 191.88 6.47 192.22 6.86 192.52 7.22 192.8 7.7 193.02 8.23 193.23 8.88 193.24 9.22 193.36 9.72"/>
  <polygon class="cls-3" points="179.67 9.99 179.67 56.79 179.58 59.05 179.73 59.55 180.07 60.57 180.55 61.69 180.89 62.33 181.5 63.3 182.03 63.91 182.71 64.55 183.79 65.27 184.77 65.77 185.83 66.1 186.78 66.29 187.64 66.38 188.52 66.38 189.38 66.28 190.02 66.16 191.11 65.82 191.78 65.53 192.43 65.16 192.79 64.93 193.19 64.62 193.54 64.35 194.25 63.64 194.59 63.23 194.92 62.77 195.19 62.37 195.46 61.87 195.67 61.43 195.86 60.98 196.04 60.49 196.12 60.21 196.2 59.94 196.26 59.68 196.3 59.48 196.35 59.19 196.39 58.93 196.41 58.77 196.43 58.59 196.45 58.42 196.46 58.14 196.61 49.08 196.75 48.53 196.87 48.16 197.1 47.72 197.33 47.39 197.57 47.09 197.84 46.86 198.07 46.68 198.39 46.47 198.69 46.33 199.01 46.21 199.33 46.12 199.8 46.04 200.39 45.98 200.8 45.99 201.19 46.04 201.55 46.09 201.94 46.2 202.26 46.3 202.66 46.5 203.11 46.77 203.38 47 203.76 47.43 203.98 47.76 204.14 48.02 204.3 48.48 204.4 48.8 204.45 49.1 204.5 49.51 204.51 49.71 204.51 50 204.53 50.42 204.53 50.88 204.56 51.52 204.56 51.96 204.59 52.52 204.59 53.32 204.59 54.08 204.59 54.74 204.59 55.52 204.64 57.2 204.64 58.62 204.7 59.21 204.81 59.92 205.03 60.76 205.23 61.32 205.48 61.85 205.71 62.27 206.19 62.99 206.57 63.47 206.84 63.76 207.28 64.23 207.68 64.55 208.95 65.41 210.17 65.91 211.37 66.26 212.51 66.38 213.33 66.38 213.75 66.36 214.25 66.31 215.05 66.16 215.62 65.99 216.09 65.83 216.47 65.66 216.93 65.44 217.4 65.18 217.86 64.86 218.35 64.48 218.64 64.22 218.85 64.03 219.09 63.79 219.46 63.37 219.69 63.06 220.11 62.46 220.45 61.85 220.85 61 221.09 60.29 221.45 58.82 221.45 46.07 221.36 45.45 221.12 44.14 220.88 43.3 220.56 42.24 220.17 41.27 219.79 40.41 219.49 39.82 219.18 39.27 218.89 38.78 218.46 38.13 218.08 37.61 217.73 37.16 217.5 36.87 217.25 36.59 216.97 36.31 216.47 35.78 216.01 35.35 215.53 34.92 215.2 34.64 214.74 34.29 214.45 34.09 214.07 33.82 213.71 33.61 213.33 33.37 212.96 33.16 212.56 32.95 212.07 32.71 211.6 32.5 211.23 32.35 210.98 32.24 210.64 32.11 210.23 31.96 209.98 31.88 209.64 31.78 209.53 31.74 209.11 31.63 208.76 31.54 208.56 31.49 208.24 31.41 207.93 31.34 207.68 31.29 207.37 31.23 207.01 31.17 206.12 31.05 205.54 31 205.2 30.96 204.65 30.92 203.72 30.9 202.72 30.92 202.21 30.95 201.54 31 200.91 31.06 200.1 31.18 199.12 31.37 198.31 31.53 196.94 31.92 196.52 32.06 196.46 9.99 196.38 8.98 196.16 7.88 195.84 6.97 195.43 6.13 195.17 5.68 194.54 4.78 193.93 4.11 193.17 3.47 192.76 3.17 192.34 2.9 191.83 2.62 191.5 2.47 191.15 2.33 190.91 2.23 190.55 2.12 189.97 1.97 189.58 1.89 189.32 1.85 188.95 1.8 188.8 1.8 188.52 1.78 188.42 1.78 187.96 1.78 187.45 1.79 187.12 1.83 186.78 1.86 186.47 1.91 186.14 1.98 185.87 2.04 185.49 2.13 185.04 2.28 184.67 2.43 184.18 2.66 183.92 2.8 183.52 3.03 183.19 3.25 182.7 3.64 182.05 4.23 181.51 4.83 181.15 5.31 180.94 5.69 180.57 6.36 180.26 7.01 180.05 7.55 179.85 8.32 179.7 9.12 179.67 9.99"/>
  <polygon class="cls-3" points="313.37 26.53 313.37 60.29 311.58 63.43 309.78 64.77 307.69 65.52 305 65.52 302.32 64.62 300.82 63.28 299.33 62.38 291.41 65.52 278.27 58.94 275.43 56.7 273.63 54.91 272.44 53.57 270.95 51.18 269.9 48.94 269.3 46.02 269.3 43.71 269.3 39.52 270.5 35.47 272.14 32.8 273.63 30.56 276.32 27.72 278.56 26.53 281.4 25.48 283.94 24.59 286.33 24.59 288.42 25.18 291.34 25.78 293.8 24.59 296.19 24.59 299.03 24.59 301.57 21.6 303.36 20.55 306.8 19.96 309.04 20.55 310.83 22.05 312.47 23.69 313.37 26.53"/>
  <polygon class="cls-1" points="290.92 28.29 292.86 27.69 294.01 27.27 295.15 27 295.95 26.82 296.55 26.82 297.57 26.95 298.81 27.22 300.55 27.72 300.95 25.7 301.6 24.41 302.6 23.51 303.49 22.86 304.29 22.51 305.43 22.22 306.38 22.22 307.38 22.46 308.17 22.76 309.22 23.36 309.87 23.86 310.46 24.56 310.96 25.25 311.36 26.6 311.36 58.12 311.11 59.36 310.61 60.51 309.82 61.75 309.02 62.3 307.82 63.05 306.63 63.34 304.99 63.34 303.79 62.95 302.35 62.2 301.7 61.4 301.14 60.21 300.75 59.16 291.29 63.34 280.16 58.15 278.56 57.07 277.33 56.17 275.83 54.76 274.49 53.07 273.29 51.21 272.5 49.32 271.9 47.49 271.69 46.47 271.51 45.39 271.4 44.2 271.4 43.47 271.4 42.63 271.46 41.46 271.66 39.92 272.06 38.11 272.86 36.11 274 33.97 275.6 31.83 276.79 30.64 278.16 29.44 279.48 28.6 280.87 27.82 282.22 27.25 283.84 26.85 285.01 26.75 285.93 26.73 286.85 26.8 287.72 27.03 290.92 28.29"/>
  <polygon class="cls-6" points="291.28 40.16 291.81 38.99 292.33 37.91 292.99 37.1 293.41 36.71 294.09 36.35 294.78 36.13 295.56 36.06 296.11 36.21 296.73 36.37 297.32 36.71 297.79 37.15 298.15 37.47 298.46 37.83 298.87 38.66 299.09 39.18 299.15 39.52 299.19 39.87 299.24 40.32 299.24 40.68 299.25 41.12 299.23 41.46 299.14 41.8 299.03 42.22 298.92 42.62 298.69 43.2 298.18 44 297.66 44.6 297.19 44.95 296.75 45.24 296.32 45.44 295.91 45.6 295.55 45.78 295.01 46.06 294.59 46.26 294.03 46.68 293.58 47.1 293.16 47.51 292.78 47.93 292.32 48.64 291.98 49.5 291.47 48.8 291.03 48.23 290.6 47.84 290.15 47.52 289.44 47.08 288.91 46.85 288.04 46.49 287.49 46.25 286.93 46.01 286.29 45.71 285.65 45.4 285.09 44.89 284.45 44.2 284.03 43.55 283.72 42.72 283.51 41.98 283.43 41.11 283.57 40.07 283.78 39.28 284.19 38.49 284.83 37.75 285.22 37.38 285.79 37.04 286.33 36.96 287.11 36.89 287.69 37 288.55 37.23 289.06 37.48 289.56 37.88 289.9 38.15 290.53 38.89 291.28 40.16"/>
</svg>