<?xml version="1.0" encoding="UTF-8"?>
<svg id="Layer_1" data-name="Layer 1" xmlns="http://www.w3.org/2000/svg" viewBox="0 0 218.99 129.47">
  <defs>
    <style>
      .cls-1 {
        stroke: #8052a1;
        stroke-miterlimit: 10;
        stroke-width: 4px;
      }

      .cls-1, .cls-2 {
        fill: #e2aed0;
      }

      .cls-2 {
        opacity: .5;
      }
    </style>
  </defs>
  <polygon class="cls-2" points="193.53 67.69 194.05 62.89 193.94 58.14 192.72 55.09 191.49 52.32 188.58 48.41 185.78 46.3 182.21 44.13 178.52 43.37 173.13 43.43 168.6 44.36 163.9 46.37 159.4 49.57 155.97 53.28 152.21 58.63 151.29 62.19 150.67 67.61 150.36 92.83 151.13 114.36 162.64 114.97 194.82 114.02 204.29 111.74 211.49 106.9 216.46 100.11 218.99 91.98 218.9 83.48 217.03 77.81 211.46 71.38 204.86 68.26 198.4 67.67 193.53 67.69"/>
  <polygon class="cls-2" points="36.79 40.6 29.62 39.55 22.51 39.55 17.92 41.41 13.73 43.29 7.82 47.87 4.6 52.33 1.26 58.04 .04 64 0 72.76 1.27 80.16 4.17 87.89 8.85 95.33 14.33 101.05 22.24 107.37 27.55 109.01 35.64 110.23 73.39 111.74 105.63 111.37 106.81 92.69 106.17 40.35 102.97 24.88 95.91 12.99 85.86 4.64 73.76 .2 61.03 0 52.5 2.82 42.75 11.6 37.92 22.21 36.89 32.67 36.79 40.6"/>
  <polygon class="cls-1" points="51.63 56.33 44.46 55.28 37.35 55.28 32.76 57.14 28.57 59.02 22.66 63.6 19.44 68.06 16.1 73.76 14.88 79.73 14.84 88.49 16.11 95.89 19.01 103.62 23.69 111.06 29.16 116.78 37.08 123.1 42.39 124.74 50.48 125.96 88.22 127.47 120.46 127.09 121.65 108.42 121.01 56.08 117.81 40.61 110.74 28.72 100.7 20.36 88.6 15.93 75.87 15.73 67.34 18.55 57.59 27.33 52.76 37.94 51.73 48.4 51.63 56.33"/>
  <polygon class="cls-1" points="179.14 80.19 179.66 75.38 179.54 70.64 178.33 67.59 177.1 64.81 174.19 60.91 171.39 58.8 167.82 56.63 164.13 55.87 158.74 55.93 154.21 56.85 149.51 58.87 145.01 62.07 141.58 65.78 137.82 71.13 136.9 74.69 136.28 80.1 135.97 105.33 136.74 126.86 148.25 127.47 180.43 126.52 189.9 124.24 197.1 119.4 202.07 112.61 204.6 104.48 204.51 95.98 202.64 90.31 197.07 83.88 190.47 80.76 184.01 80.17 179.14 80.19"/>
</svg>