<?xml version="1.0" encoding="UTF-8"?><svg id="Layer_1" xmlns="http://www.w3.org/2000/svg" viewBox="0 0 240.55 624.92"><defs><style>.cls-1{opacity:.5;}.cls-1,.cls-2{fill:#e2aed0;}.cls-2{stroke:#8052a1;stroke-miterlimit:10;}</style></defs><polygon class="cls-1" points="232.87 606.37 233.03 604.92 232.99 603.49 232.62 602.57 232.25 601.73 231.37 600.55 230.53 599.92 229.45 599.26 228.34 599.03 226.71 599.05 225.34 599.33 223.92 599.94 222.57 600.9 221.53 602.02 220.4 603.64 220.12 604.71 219.93 606.35 219.84 613.96 220.07 620.46 223.54 620.64 233.26 620.36 236.12 619.67 238.29 618.21 239.79 616.16 240.55 613.7 240.53 611.14 239.96 609.43 238.28 607.49 236.29 606.54 234.34 606.37 232.87 606.37"/><polygon class="cls-1" points="185.56 598.19 183.39 597.88 181.24 597.88 179.86 598.44 178.6 599.01 176.81 600.39 175.84 601.74 174.83 603.46 174.46 605.26 174.45 607.9 174.83 610.14 175.71 612.47 177.12 614.71 178.77 616.44 181.16 618.35 182.77 618.85 185.21 619.21 196.6 619.67 206.33 619.56 206.69 613.92 206.5 598.12 205.53 593.45 203.4 589.86 200.37 587.34 196.71 586 192.87 585.94 190.3 586.79 187.35 589.44 185.9 592.64 185.58 595.8 185.56 598.19"/><polygon class="cls-2" points="190.04 602.94 187.87 602.63 185.72 602.63 184.34 603.19 183.08 603.75 181.29 605.14 180.32 606.48 179.31 608.2 178.94 610.01 178.93 612.65 179.31 614.88 180.19 617.22 181.6 619.46 183.25 621.19 185.64 623.1 187.25 623.59 189.69 623.96 201.08 624.42 210.81 624.3 211.17 618.67 210.98 602.87 210.01 598.2 207.88 594.61 204.85 592.09 201.19 590.75 197.35 590.69 194.78 591.54 191.83 594.19 190.38 597.39 190.06 600.55 190.04 602.94"/><polygon class="cls-2" points="228.52 610.14 228.68 608.69 228.65 607.26 228.28 606.34 227.91 605.5 227.03 604.32 226.18 603.69 225.11 603.03 224 602.8 222.37 602.82 221 603.1 219.58 603.71 218.22 604.67 217.19 605.79 216.05 607.41 215.77 608.48 215.59 610.12 215.49 617.73 215.72 624.23 219.2 624.42 228.91 624.13 231.77 623.44 233.95 621.98 235.45 619.93 236.21 617.48 236.18 614.91 235.62 613.2 233.94 611.26 231.94 610.32 230 610.14 228.52 610.14"/></svg>