<?xml version="1.0" encoding="UTF-8"?><svg id="Layer_1" xmlns="http://www.w3.org/2000/svg" viewBox="0 0 60.2 48.55"><defs><style>.cls-1{fill:#e2aed0;}.cls-2{opacity:.5;}.cls-2,.cls-3{fill:#8052a1;}</style></defs><path class="cls-2" d="M3.93,0h55.37c.49,0,.9.4.9.9v10.52c0,11.79-9.57,21.36-21.36,21.36H3.04V.9c0-.49.4-.9.9-.9Z"/><path class="cls-3" d="M.9,5.23h53.18c.49,0,.9.4.9.9v8.81c0,11.79-9.57,21.36-21.36,21.36H0V6.13c0-.49.4-.9.9-.9Z"/><polygon class="cls-3" points="0 36.3 0 48.55 10.16 36.3 0 36.3"/><polygon class="cls-1" points="26.2 15.77 25.66 15.06 25.04 14.44 24.49 14.2 23.96 13.99 23.07 13.86 22.41 13.95 21.65 14.14 21.04 14.54 20.31 15.27 19.8 16 19.41 16.89 19.2 17.92 19.2 18.88 19.36 20.1 19.69 20.69 20.29 21.5 23.46 24.91 26.3 27.68 27.96 26.22 32.27 21.78 33.28 20.21 33.66 18.6 33.48 17.03 32.79 15.6 31.7 14.48 30.72 13.97 29.14 13.86 27.83 14.33 26.87 15.12 26.2 15.77"/></svg>