<?xml version="1.0" encoding="UTF-8"?>
<svg id="Layer_1" data-name="Layer 1" xmlns="http://www.w3.org/2000/svg" viewBox="0 0 36.65 36.65">
  <defs>
    <style>
      .cls-1 {
        fill: #e1aed0;
      }

      .cls-2 {
        fill: #8052a1;
      }
    </style>
  </defs>
  <circle class="cls-2" cx="18.32" cy="18.32" r="18.32"/>
  <circle class="cls-1" cx="18.32" cy="10.91" r="6.51"/>
  <path class="cls-1" d="M3.68,29.33s14.49-20.75,28.43,0c.45.66.4.59.4.59l-.29.35-.22.25-.13.15-.09.1-.11.12-.06.06-.15.15-.15.15-.12.11-.18.17-.3.28-.36.32-.14.12-.09.08-.06.05-.15.12-.12.1-.15.12-.13.1-.2.16-.19.14-.17.12-.16.11-.21.15-.16.11-.24.15-.24.15-.27.16-.34.2-.17.1-.12.07-.12.07-.26.13-.23.12-.37.18-.17.08-.17.08-.35.15-.2.08-.27.1-.28.1-.25.09-.18.06-.15.05-.12.04-.12.04-.14.04-.12.04-.14.04-.29.08-.22.06-.16.04-.28.07-.27.06-.31.06-.18.03-.13.02-.16.03-.3.05-.12.02h-.1s-.2.04-.2.04l-.3.04-.25.03-.18.02-.2.02h-.19s-.2.03-.2.03h-.27s-.25.01-.25.01h-.19s-.28.02-.28.02h-.19s-.25,0-.25,0h-.24s-.37-.02-.37-.02l-.42-.03-.35-.03-.38-.04-.53-.07-.79-.13-.51-.11-.51-.12-.73-.2-.47-.15-.79-.28-.59-.23-.84-.38-.87-.44-.5-.28-.63-.39-.59-.4-.4-.29-.23-.17-.2-.16-.19-.15-.21-.17-.35-.3-.33-.3-.35-.33-.42-.42-.43-.46-.24-.26-.23-.28-.25-.31-.22-.28-.1-.14Z"/>
</svg>